<svg width="30" height="30" viewBox="0 0 30 30" fill="none" xmlns="http://www.w3.org/2000/svg">
<path d="M8.87996 17.2048C10.9949 17.2048 12.6899 18.9163 12.6899 21.0464V26.1599C12.6899 28.275 10.9949 30 8.87996 30H3.80998C1.70999 30 0 28.275 0 26.1599V21.0464C0 18.9163 1.70999 17.2048 3.80998 17.2048H8.87996ZM26.19 17.2048C28.29 17.2048 30 18.9163 30 21.0464V26.1599C30 28.275 28.29 30 26.19 30H21.12C19.0051 30 17.3101 28.275 17.3101 26.1599V21.0464C17.3101 18.9163 19.0051 17.2048 21.12 17.2048H26.19ZM8.87996 0C10.9949 0 12.6899 1.72503 12.6899 3.84156V8.95513C12.6899 11.0852 10.9949 12.7952 8.87996 12.7952H3.80998C1.70999 12.7952 0 11.0852 0 8.95513V3.84156C0 1.72503 1.70999 0 3.80998 0H8.87996ZM26.19 0C28.29 0 30 1.72503 30 3.84156V8.95513C30 11.0852 28.29 12.7952 26.19 12.7952H21.12C19.0051 12.7952 17.3101 11.0852 17.3101 8.95513V3.84156C17.3101 1.72503 19.0051 0 21.12 0H26.19Z" fill="black"/>
</svg>
