<svg width="30" height="30" viewBox="0 0 30 30" fill="none" xmlns="http://www.w3.org/2000/svg">
<path fill-rule="evenodd" clip-rule="evenodd" d="M8.874 0C3.567 0 0 3.414 0 8.4975V21.501C0 26.5845 3.567 30 8.874 30H21.126C26.433 30 30 26.5845 30 21.501V8.4975C30 3.414 26.433 0 21.126 0H8.874ZM8.874 2.25H21.126C25.1505 2.25 27.75 4.7025 27.75 8.4975V21.501C27.75 25.296 25.1505 27.75 21.126 27.75H8.874C4.8495 27.75 2.25 25.296 2.25 21.501V8.4975C2.25 4.7025 4.8495 2.25 8.874 2.25ZM13.723 8.5815L8.08717 14.1934C8.04506 14.2343 8.00614 14.2785 7.97082 14.3256L8.07705 14.2035C8.0239 14.2559 7.97664 14.3131 7.93564 14.3742C7.91774 14.4019 7.90033 14.4305 7.88419 14.4599C7.87095 14.4828 7.8589 14.5068 7.84773 14.5312C7.83753 14.5546 7.82768 14.5782 7.81862 14.6021C7.80933 14.6254 7.80123 14.6492 7.79394 14.6733C7.76863 14.7582 7.75264 14.8474 7.74775 14.9395C7.74609 14.9599 7.74555 14.9799 7.74555 15L7.7505 15.0585L7.75643 15.1526C7.76453 15.2123 7.77731 15.2704 7.7944 15.3268C7.80123 15.3508 7.80933 15.3746 7.81821 15.3981C7.82768 15.4218 7.83753 15.4454 7.84814 15.4685C7.8589 15.4932 7.87095 15.5172 7.88386 15.5407C7.90033 15.5695 7.91774 15.5981 7.93635 15.6259C7.9467 15.6423 7.95821 15.6584 7.97017 15.6743C8.00293 15.7172 8.03802 15.7576 8.07578 15.7954L8.07705 15.7965L13.723 21.4185C13.942 21.6375 14.2301 21.747 14.5166 21.747C14.8046 21.747 15.0941 21.6375 15.3131 21.4155C15.751 20.9745 15.7496 20.2635 15.3101 19.8255L11.595 16.125H21.1292C21.7501 16.125 22.2542 15.621 22.2542 15C22.2542 14.379 21.7501 13.875 21.1292 13.875H11.595L15.3101 10.1745C15.7496 9.7365 15.751 9.0255 15.3131 8.5845C14.8751 8.1435 14.1641 8.1435 13.723 8.5815Z" fill="black"/>
</svg>
