<svg width="30" height="31" viewBox="0 0 30 31" fill="none" xmlns="http://www.w3.org/2000/svg">
<path d="M21.9979 0.0158474C24.1557 -0.12201 26.2835 0.643864 27.8869 2.14498C29.3554 3.78395 30.1046 5.95903 29.9847 8.18007V22.4866C30.1196 24.7076 29.3554 26.8827 27.9019 28.5217C26.2985 30.0228 24.1557 30.7887 21.9979 30.6508H8.0023C5.82953 30.7887 3.70172 30.0228 2.09836 28.5217C0.629872 26.8827 -0.119359 24.7076 0.015503 22.4866V8.18007C-0.119359 5.95903 0.629872 3.78395 2.09836 2.14498C3.70172 0.643864 5.82953 -0.12201 8.0023 0.0158474H21.9979ZM21.6083 7.01594C20.6793 6.06626 19.1808 6.06626 18.2518 7.01594L17.2478 8.05753C17.098 8.2107 17.098 8.4711 17.2478 8.62428C17.2478 8.62428 17.2772 8.65415 17.3296 8.70736L17.6982 9.08207C17.9114 9.29891 18.1775 9.56971 18.4447 9.84202L19.3508 10.7678C19.5399 10.962 19.6653 11.0921 19.6753 11.1057C19.8402 11.2895 19.945 11.5346 19.945 11.8103C19.945 12.3617 19.5105 12.8213 18.9561 12.8213C18.7013 12.8213 18.4616 12.714 18.2967 12.5456L15.7943 10.0028C15.6744 9.88031 15.4646 9.88031 15.3448 10.0028L8.1971 17.3093C7.70261 17.8148 7.4179 18.4887 7.40292 19.2087L7.31301 22.8389C7.31301 23.038 7.37295 23.2218 7.50781 23.3597C7.64267 23.4976 7.82249 23.5741 8.01729 23.5741H11.5387C12.2579 23.5741 12.9472 23.2831 13.4717 22.7623L23.5563 12.423C24.4704 11.4733 24.4704 9.94158 23.5563 9.00721L21.6083 7.01594Z" fill="black"/>
</svg>
